<svg xmlns="http://www.w3.org/2000/svg" xmlns:xlink="http://www.w3.org/1999/xlink" width="1584" zoomAndPan="magnify" viewBox="0 0 1188 296.999993" height="396" preserveAspectRatio="xMidYMid meet" version="1.0"><defs><g/><clipPath id="9f58932875"><path d="M 891.898438 74.121094 L 1041.898438 74.121094 L 1041.898438 195.621094 L 891.898438 195.621094 Z M 891.898438 74.121094 " clip-rule="nonzero"/></clipPath><clipPath id="9409ed5b7c"><path d="M 169.714844 243.636719 L 633.992188 243.636719 L 633.992188 280.972656 L 169.714844 280.972656 Z M 169.714844 243.636719 " clip-rule="nonzero"/></clipPath></defs><path stroke-linecap="butt" transform="matrix(0.75, 0, 0, 0.75, 169.716171, 244.258006)" fill="none" stroke-linejoin="miter" d="M -0.00176957 25.499743 L 619.034729 25.499743 " stroke="#ffffff" stroke-width="51" stroke-opacity="1" stroke-miterlimit="4"/><g clip-path="url(#9f58932875)"><path fill="#ffffff" d="M 1024.019531 74.160156 L 909.75 74.160156 C 909.167969 74.160156 908.582031 74.1875 908.003906 74.246094 C 907.421875 74.304688 906.84375 74.390625 906.269531 74.503906 C 905.695312 74.621094 905.128906 74.761719 904.570312 74.933594 C 904.011719 75.101562 903.460938 75.300781 902.921875 75.523438 C 902.382812 75.746094 901.855469 75.996094 901.339844 76.273438 C 900.824219 76.546875 900.324219 76.847656 899.835938 77.175781 C 899.351562 77.5 898.882812 77.847656 898.429688 78.21875 C 897.976562 78.589844 897.546875 78.980469 897.132812 79.394531 C 896.71875 79.808594 896.328125 80.238281 895.957031 80.691406 C 895.585938 81.144531 895.238281 81.613281 894.914062 82.097656 C 894.585938 82.585938 894.285156 83.085938 894.011719 83.601562 C 893.734375 84.117188 893.484375 84.644531 893.261719 85.183594 C 893.039062 85.722656 892.839844 86.273438 892.671875 86.832031 C 892.5 87.390625 892.359375 87.957031 892.242188 88.53125 C 892.128906 89.105469 892.042969 89.683594 891.984375 90.265625 C 891.925781 90.847656 891.898438 91.429688 891.898438 92.011719 L 891.898438 177.714844 C 891.898438 178.300781 891.925781 178.882812 891.984375 179.464844 C 892.042969 180.046875 892.128906 180.625 892.242188 181.195312 C 892.359375 181.769531 892.5 182.335938 892.671875 182.894531 C 892.839844 183.453125 893.039062 184.003906 893.261719 184.542969 C 893.484375 185.085938 893.734375 185.613281 894.011719 186.128906 C 894.285156 186.644531 894.585938 187.144531 894.914062 187.628906 C 895.238281 188.117188 895.585938 188.585938 895.957031 189.035156 C 896.328125 189.488281 896.71875 189.921875 897.132812 190.332031 C 897.546875 190.746094 897.976562 191.140625 898.429688 191.511719 C 898.882812 191.882812 899.351562 192.230469 899.835938 192.554688 C 900.324219 192.878906 900.824219 193.179688 901.339844 193.457031 C 901.855469 193.730469 902.382812 193.980469 902.921875 194.203125 C 903.460938 194.429688 904.011719 194.625 904.570312 194.796875 C 905.128906 194.964844 905.695312 195.109375 906.269531 195.222656 C 906.84375 195.335938 907.421875 195.421875 908.003906 195.480469 C 908.582031 195.539062 909.167969 195.566406 909.75 195.570312 L 1024.019531 195.570312 C 1024.605469 195.566406 1025.1875 195.539062 1025.769531 195.480469 C 1026.351562 195.421875 1026.929688 195.335938 1027.5 195.222656 C 1028.074219 195.109375 1028.640625 194.964844 1029.199219 194.796875 C 1029.757812 194.625 1030.308594 194.429688 1030.847656 194.203125 C 1031.390625 193.980469 1031.917969 193.730469 1032.433594 193.457031 C 1032.949219 193.179688 1033.449219 192.878906 1033.933594 192.554688 C 1034.421875 192.230469 1034.890625 191.882812 1035.339844 191.511719 C 1035.792969 191.140625 1036.226562 190.746094 1036.640625 190.332031 C 1037.050781 189.921875 1037.445312 189.488281 1037.816406 189.035156 C 1038.1875 188.585938 1038.535156 188.117188 1038.859375 187.628906 C 1039.183594 187.144531 1039.484375 186.644531 1039.761719 186.128906 C 1040.035156 185.613281 1040.285156 185.085938 1040.511719 184.542969 C 1040.734375 184.003906 1040.929688 183.453125 1041.101562 182.894531 C 1041.269531 182.335938 1041.414062 181.769531 1041.527344 181.195312 C 1041.640625 180.625 1041.726562 180.046875 1041.785156 179.464844 C 1041.84375 178.882812 1041.875 178.300781 1041.875 177.714844 L 1041.875 92.011719 C 1041.875 91.429688 1041.84375 90.847656 1041.785156 90.265625 C 1041.726562 89.683594 1041.640625 89.105469 1041.527344 88.53125 C 1041.414062 87.957031 1041.269531 87.390625 1041.101562 86.832031 C 1040.929688 86.273438 1040.734375 85.722656 1040.511719 85.183594 C 1040.285156 84.644531 1040.035156 84.117188 1039.761719 83.601562 C 1039.484375 83.085938 1039.183594 82.585938 1038.859375 82.097656 C 1038.535156 81.613281 1038.1875 81.144531 1037.816406 80.691406 C 1037.445312 80.238281 1037.050781 79.808594 1036.640625 79.394531 C 1036.226562 78.980469 1035.792969 78.589844 1035.339844 78.21875 C 1034.890625 77.847656 1034.421875 77.5 1033.933594 77.175781 C 1033.449219 76.847656 1032.949219 76.546875 1032.433594 76.273438 C 1031.917969 75.996094 1031.390625 75.746094 1030.847656 75.523438 C 1030.308594 75.300781 1029.757812 75.101562 1029.199219 74.933594 C 1028.640625 74.761719 1028.074219 74.621094 1027.5 74.503906 C 1026.929688 74.390625 1026.351562 74.304688 1025.769531 74.246094 C 1025.1875 74.1875 1024.605469 74.160156 1024.019531 74.160156 Z M 1034.730469 177.714844 C 1034.730469 178.417969 1034.664062 179.113281 1034.523438 179.804688 C 1034.386719 180.492188 1034.183594 181.164062 1033.914062 181.8125 C 1033.644531 182.460938 1033.3125 183.078125 1032.921875 183.664062 C 1032.53125 184.246094 1032.089844 184.789062 1031.589844 185.285156 C 1031.09375 185.785156 1030.554688 186.226562 1029.96875 186.617188 C 1029.382812 187.007812 1028.765625 187.339844 1028.117188 187.609375 C 1027.46875 187.878906 1026.796875 188.082031 1026.109375 188.21875 C 1025.417969 188.355469 1024.722656 188.425781 1024.019531 188.425781 L 909.75 188.425781 C 909.046875 188.425781 908.351562 188.355469 907.664062 188.21875 C 906.972656 188.082031 906.304688 187.878906 905.652344 187.609375 C 905.003906 187.339844 904.386719 187.007812 903.804688 186.617188 C 903.21875 186.226562 902.675781 185.785156 902.179688 185.285156 C 901.683594 184.789062 901.238281 184.246094 900.847656 183.664062 C 900.457031 183.078125 900.128906 182.460938 899.859375 181.8125 C 899.589844 181.164062 899.382812 180.492188 899.246094 179.804688 C 899.109375 179.113281 899.039062 178.417969 899.039062 177.714844 L 899.039062 92.011719 C 899.039062 91.308594 899.109375 90.613281 899.246094 89.925781 C 899.382812 89.234375 899.589844 88.566406 899.859375 87.914062 C 900.128906 87.265625 900.457031 86.648438 900.847656 86.066406 C 901.238281 85.480469 901.683594 84.9375 902.179688 84.441406 C 902.675781 83.945312 903.21875 83.5 903.804688 83.109375 C 904.386719 82.71875 905.003906 82.390625 905.652344 82.121094 C 906.304688 81.851562 906.972656 81.648438 907.664062 81.507812 C 908.351562 81.371094 909.046875 81.300781 909.75 81.300781 L 1024.019531 81.300781 C 1024.722656 81.300781 1025.417969 81.371094 1026.109375 81.507812 C 1026.796875 81.648438 1027.46875 81.851562 1028.117188 82.121094 C 1028.765625 82.390625 1029.382812 82.71875 1029.96875 83.109375 C 1030.554688 83.5 1031.09375 83.945312 1031.589844 84.441406 C 1032.089844 84.9375 1032.53125 85.480469 1032.921875 86.066406 C 1033.3125 86.648438 1033.644531 87.265625 1033.914062 87.914062 C 1034.183594 88.566406 1034.386719 89.234375 1034.523438 89.925781 C 1034.664062 90.613281 1034.730469 91.308594 1034.730469 92.011719 Z M 955.125 132.339844 C 955.460938 132.675781 955.71875 133.058594 955.902344 133.496094 C 956.082031 133.933594 956.171875 134.390625 956.171875 134.863281 C 956.171875 135.335938 956.082031 135.792969 955.902344 136.230469 C 955.71875 136.667969 955.460938 137.054688 955.125 137.386719 L 926.558594 165.957031 C 926.222656 166.28125 925.835938 166.53125 925.402344 166.703125 C 924.96875 166.878906 924.515625 166.960938 924.046875 166.957031 C 923.578125 166.953125 923.128906 166.859375 922.699219 166.679688 C 922.265625 166.5 921.886719 166.242188 921.554688 165.910156 C 921.222656 165.582031 920.96875 165.199219 920.785156 164.769531 C 920.605469 164.335938 920.511719 163.886719 920.507812 163.417969 C 920.503906 162.949219 920.589844 162.5 920.761719 162.0625 C 920.9375 161.628906 921.183594 161.242188 921.511719 160.90625 L 947.554688 134.863281 L 921.511719 108.820312 C 921.183594 108.484375 920.9375 108.097656 920.761719 107.664062 C 920.589844 107.230469 920.503906 106.777344 920.507812 106.308594 C 920.511719 105.84375 920.605469 105.390625 920.785156 104.960938 C 920.96875 104.527344 921.222656 104.148438 921.554688 103.816406 C 921.886719 103.484375 922.265625 103.230469 922.699219 103.046875 C 923.128906 102.867188 923.578125 102.773438 924.046875 102.769531 C 924.515625 102.765625 924.96875 102.851562 925.402344 103.023438 C 925.835938 103.199219 926.222656 103.449219 926.558594 103.773438 Z M 1013.308594 163.429688 C 1013.308594 163.90625 1013.21875 164.359375 1013.035156 164.796875 C 1012.855469 165.234375 1012.597656 165.621094 1012.261719 165.957031 C 1011.925781 166.292969 1011.539062 166.550781 1011.101562 166.730469 C 1010.664062 166.910156 1010.210938 167.003906 1009.734375 167 L 966.886719 167 C 966.414062 167 965.957031 166.910156 965.519531 166.730469 C 965.082031 166.550781 964.695312 166.289062 964.359375 165.957031 C 964.027344 165.621094 963.769531 165.234375 963.585938 164.796875 C 963.40625 164.359375 963.316406 163.90625 963.316406 163.429688 C 963.316406 162.957031 963.40625 162.503906 963.585938 162.066406 C 963.769531 161.628906 964.027344 161.242188 964.359375 160.90625 C 964.695312 160.570312 965.082031 160.3125 965.519531 160.132812 C 965.957031 159.949219 966.414062 159.859375 966.886719 159.859375 L 1009.734375 159.859375 C 1010.210938 159.859375 1010.664062 159.949219 1011.101562 160.132812 C 1011.539062 160.3125 1011.925781 160.570312 1012.261719 160.90625 C 1012.597656 161.242188 1012.855469 161.625 1013.035156 162.0625 C 1013.21875 162.5 1013.308594 162.957031 1013.308594 163.429688 Z M 1013.308594 163.429688 " fill-opacity="1" fill-rule="nonzero"/></g><g fill="#ffffff" fill-opacity="1"><g transform="translate(146.115458, 210.13642)"><g><path d="M 90.09375 3.015625 C 74.320312 3.015625 60.164062 -0.316406 47.625 -6.984375 C 35.082031 -13.648438 25.226562 -22.929688 18.0625 -34.828125 C 10.894531 -46.722656 7.3125 -60.195312 7.3125 -75.25 C 7.3125 -90.300781 10.894531 -103.773438 18.0625 -115.671875 C 25.226562 -127.578125 35.082031 -136.859375 47.625 -143.515625 C 60.164062 -150.179688 74.320312 -153.515625 90.09375 -153.515625 C 103.851562 -153.515625 116.25 -151.078125 127.28125 -146.203125 C 138.320312 -141.335938 147.5 -134.316406 154.8125 -125.140625 L 127.71875 -100.625 C 117.96875 -112.382812 106.140625 -118.265625 92.234375 -118.265625 C 84.066406 -118.265625 76.789062 -116.472656 70.40625 -112.890625 C 64.03125 -109.304688 59.085938 -104.25 55.578125 -97.71875 C 52.066406 -91.195312 50.3125 -83.707031 50.3125 -75.25 C 50.3125 -66.789062 52.066406 -59.300781 55.578125 -52.78125 C 59.085938 -46.257812 64.03125 -41.207031 70.40625 -37.625 C 76.789062 -34.039062 84.066406 -32.25 92.234375 -32.25 C 106.140625 -32.25 117.96875 -38.128906 127.71875 -49.890625 L 154.8125 -25.375 C 147.5 -16.195312 138.320312 -9.171875 127.28125 -4.296875 C 116.25 0.578125 103.851562 3.015625 90.09375 3.015625 Z M 90.09375 3.015625 "/></g></g></g><g fill="#ffffff" fill-opacity="1"><g transform="translate(323.496072, 210.13642)"><g><path d="M 90.953125 3.015625 C 75.035156 3.015625 60.734375 -0.351562 48.046875 -7.09375 C 35.367188 -13.832031 25.410156 -23.148438 18.171875 -35.046875 C 10.929688 -46.941406 7.3125 -60.34375 7.3125 -75.25 C 7.3125 -90.15625 10.929688 -103.554688 18.171875 -115.453125 C 25.410156 -127.359375 35.367188 -136.675781 48.046875 -143.40625 C 60.734375 -150.144531 75.035156 -153.515625 90.953125 -153.515625 C 106.859375 -153.515625 121.15625 -150.144531 133.84375 -143.40625 C 146.53125 -136.675781 156.492188 -127.359375 163.734375 -115.453125 C 170.972656 -103.554688 174.59375 -90.15625 174.59375 -75.25 C 174.59375 -60.34375 170.972656 -46.941406 163.734375 -35.046875 C 156.492188 -23.148438 146.53125 -13.832031 133.84375 -7.09375 C 121.15625 -0.351562 106.859375 3.015625 90.953125 3.015625 Z M 90.953125 -32.25 C 98.546875 -32.25 105.425781 -34.039062 111.59375 -37.625 C 117.757812 -41.207031 122.632812 -46.257812 126.21875 -52.78125 C 129.800781 -59.300781 131.59375 -66.789062 131.59375 -75.25 C 131.59375 -83.707031 129.800781 -91.195312 126.21875 -97.71875 C 122.632812 -104.25 117.757812 -109.304688 111.59375 -112.890625 C 105.425781 -116.472656 98.546875 -118.265625 90.953125 -118.265625 C 83.359375 -118.265625 76.476562 -116.472656 70.3125 -112.890625 C 64.144531 -109.304688 59.269531 -104.25 55.6875 -97.71875 C 52.101562 -91.195312 50.3125 -83.707031 50.3125 -75.25 C 50.3125 -66.789062 52.101562 -59.300781 55.6875 -52.78125 C 59.269531 -46.257812 64.144531 -41.207031 70.3125 -37.625 C 76.476562 -34.039062 83.359375 -32.25 90.953125 -32.25 Z M 90.953125 -32.25 "/></g></g></g><g fill="#ffffff" fill-opacity="1"><g transform="translate(524.097242, 210.13642)"><g><path d="M 15.046875 -150.515625 L 86.21875 -150.515625 C 102.707031 -150.515625 117.328125 -147.429688 130.078125 -141.265625 C 142.835938 -135.097656 152.726562 -126.351562 159.75 -115.03125 C 166.78125 -103.707031 170.296875 -90.445312 170.296875 -75.25 C 170.296875 -60.0625 166.78125 -46.800781 159.75 -35.46875 C 152.726562 -24.144531 142.835938 -15.398438 130.078125 -9.234375 C 117.328125 -3.078125 102.707031 0 86.21875 0 L 15.046875 0 Z M 84.5 -33.96875 C 97.40625 -33.96875 107.765625 -37.625 115.578125 -44.9375 C 123.390625 -52.25 127.296875 -62.351562 127.296875 -75.25 C 127.296875 -88.15625 123.390625 -98.257812 115.578125 -105.5625 C 107.765625 -112.875 97.40625 -116.53125 84.5 -116.53125 L 57.625 -116.53125 L 57.625 -33.96875 Z M 84.5 -33.96875 "/></g></g></g><g fill="#ffffff" fill-opacity="1"><g transform="translate(720.398258, 210.13642)"><g><path d="M 135.890625 -32.890625 L 135.890625 0 L 15.046875 0 L 15.046875 -150.515625 L 133.09375 -150.515625 L 133.09375 -117.609375 L 57.1875 -117.609375 L 57.1875 -92.234375 L 124.0625 -92.234375 L 124.0625 -60.421875 L 57.1875 -60.421875 L 57.1875 -32.890625 Z M 135.890625 -32.890625 "/></g></g></g><g clip-path="url(#9409ed5b7c)"><path fill="#ffffff" d="M 169.714844 243.636719 L 634.042969 243.636719 L 634.042969 280.972656 L 169.714844 280.972656 Z M 169.714844 243.636719 " fill-opacity="1" fill-rule="nonzero"/></g><g fill="#ffffff" fill-opacity="1"><g transform="translate(671.183994, 278.319684)"><g><path d="M 11.609375 -29.171875 L 0.1875 -29.171875 L 0.1875 -33.3125 L 27.75 -33.3125 L 27.75 -29.171875 L 16.328125 -29.171875 L 16.328125 0 L 11.609375 0 Z M 11.609375 -29.171875 "/></g></g></g><g fill="#ffffff" fill-opacity="1"><g transform="translate(710.927264, 278.319684)"><g><path d="M 20.03125 0.375 C 16.664062 0.375 13.632812 -0.359375 10.9375 -1.828125 C 8.25 -3.304688 6.132812 -5.34375 4.59375 -7.9375 C 3.050781 -10.539062 2.28125 -13.445312 2.28125 -16.65625 C 2.28125 -19.863281 3.050781 -22.765625 4.59375 -25.359375 C 6.132812 -27.960938 8.25 -30.003906 10.9375 -31.484375 C 13.632812 -32.960938 16.664062 -33.703125 20.03125 -33.703125 C 23.363281 -33.703125 26.378906 -32.960938 29.078125 -31.484375 C 31.773438 -30.003906 33.882812 -27.972656 35.40625 -25.390625 C 36.925781 -22.804688 37.6875 -19.894531 37.6875 -16.65625 C 37.6875 -13.414062 36.925781 -10.503906 35.40625 -7.921875 C 33.882812 -5.335938 31.773438 -3.304688 29.078125 -1.828125 C 26.378906 -0.359375 23.363281 0.375 20.03125 0.375 Z M 20.03125 -3.859375 C 22.476562 -3.859375 24.675781 -4.410156 26.625 -5.515625 C 28.582031 -6.628906 30.125 -8.160156 31.25 -10.109375 C 32.375 -12.066406 32.9375 -14.25 32.9375 -16.65625 C 32.9375 -19.070312 32.375 -21.253906 31.25 -23.203125 C 30.125 -25.148438 28.582031 -26.675781 26.625 -27.78125 C 24.675781 -28.894531 22.476562 -29.453125 20.03125 -29.453125 C 17.59375 -29.453125 15.378906 -28.894531 13.390625 -27.78125 C 11.410156 -26.675781 9.859375 -25.148438 8.734375 -23.203125 C 7.609375 -21.253906 7.046875 -19.070312 7.046875 -16.65625 C 7.046875 -14.25 7.609375 -12.066406 8.734375 -10.109375 C 9.859375 -8.160156 11.410156 -6.628906 13.390625 -5.515625 C 15.378906 -4.410156 17.59375 -3.859375 20.03125 -3.859375 Z M 20.03125 -3.859375 "/></g></g></g><g fill="#ffffff" fill-opacity="1"><g transform="translate(762.712228, 278.319684)"><g/></g></g><g fill="#ffffff" fill-opacity="1"><g transform="translate(787.320127, 278.319684)"><g><path d="M 19.890625 0.375 C 16.554688 0.375 13.550781 -0.359375 10.875 -1.828125 C 8.195312 -3.304688 6.09375 -5.335938 4.5625 -7.921875 C 3.039062 -10.503906 2.28125 -13.414062 2.28125 -16.65625 C 2.28125 -19.894531 3.039062 -22.804688 4.5625 -25.390625 C 6.09375 -27.972656 8.203125 -30.003906 10.890625 -31.484375 C 13.585938 -32.960938 16.601562 -33.703125 19.9375 -33.703125 C 22.539062 -33.703125 24.921875 -33.265625 27.078125 -32.390625 C 29.234375 -31.515625 31.078125 -30.222656 32.609375 -28.515625 L 29.515625 -25.515625 C 27.003906 -28.140625 23.875 -29.453125 20.125 -29.453125 C 17.65625 -29.453125 15.421875 -28.894531 13.421875 -27.78125 C 11.421875 -26.675781 9.859375 -25.148438 8.734375 -23.203125 C 7.609375 -21.253906 7.046875 -19.070312 7.046875 -16.65625 C 7.046875 -14.25 7.609375 -12.066406 8.734375 -10.109375 C 9.859375 -8.160156 11.421875 -6.628906 13.421875 -5.515625 C 15.421875 -4.410156 17.65625 -3.859375 20.125 -3.859375 C 23.84375 -3.859375 26.972656 -5.191406 29.515625 -7.859375 L 32.609375 -4.859375 C 31.078125 -3.140625 29.222656 -1.835938 27.046875 -0.953125 C 24.878906 -0.0664062 22.492188 0.375 19.890625 0.375 Z M 19.890625 0.375 "/></g></g></g><g fill="#ffffff" fill-opacity="1"><g transform="translate(833.536414, 278.319684)"><g><path d="M 5 -33.3125 L 9.75 -33.3125 L 9.75 -4.140625 L 27.796875 -4.140625 L 27.796875 0 L 5 0 Z M 5 -33.3125 "/></g></g></g><g fill="#ffffff" fill-opacity="1"><g transform="translate(873.612869, 278.319684)"><g><path d="M 20.03125 0.375 C 16.664062 0.375 13.632812 -0.359375 10.9375 -1.828125 C 8.25 -3.304688 6.132812 -5.34375 4.59375 -7.9375 C 3.050781 -10.539062 2.28125 -13.445312 2.28125 -16.65625 C 2.28125 -19.863281 3.050781 -22.765625 4.59375 -25.359375 C 6.132812 -27.960938 8.25 -30.003906 10.9375 -31.484375 C 13.632812 -32.960938 16.664062 -33.703125 20.03125 -33.703125 C 23.363281 -33.703125 26.378906 -32.960938 29.078125 -31.484375 C 31.773438 -30.003906 33.882812 -27.972656 35.40625 -25.390625 C 36.925781 -22.804688 37.6875 -19.894531 37.6875 -16.65625 C 37.6875 -13.414062 36.925781 -10.503906 35.40625 -7.921875 C 33.882812 -5.335938 31.773438 -3.304688 29.078125 -1.828125 C 26.378906 -0.359375 23.363281 0.375 20.03125 0.375 Z M 20.03125 -3.859375 C 22.476562 -3.859375 24.675781 -4.410156 26.625 -5.515625 C 28.582031 -6.628906 30.125 -8.160156 31.25 -10.109375 C 32.375 -12.066406 32.9375 -14.25 32.9375 -16.65625 C 32.9375 -19.070312 32.375 -21.253906 31.25 -23.203125 C 30.125 -25.148438 28.582031 -26.675781 26.625 -27.78125 C 24.675781 -28.894531 22.476562 -29.453125 20.03125 -29.453125 C 17.59375 -29.453125 15.378906 -28.894531 13.390625 -27.78125 C 11.410156 -26.675781 9.859375 -25.148438 8.734375 -23.203125 C 7.609375 -21.253906 7.046875 -19.070312 7.046875 -16.65625 C 7.046875 -14.25 7.609375 -12.066406 8.734375 -10.109375 C 9.859375 -8.160156 11.410156 -6.628906 13.390625 -5.515625 C 15.378906 -4.410156 17.59375 -3.859375 20.03125 -3.859375 Z M 20.03125 -3.859375 "/></g></g></g><g fill="#ffffff" fill-opacity="1"><g transform="translate(925.397839, 278.319684)"><g><path d="M 18.796875 0.375 C 14.359375 0.375 10.898438 -0.890625 8.421875 -3.421875 C 5.953125 -5.960938 4.71875 -9.613281 4.71875 -14.375 L 4.71875 -33.3125 L 9.46875 -33.3125 L 9.46875 -14.5625 C 9.46875 -7.425781 12.59375 -3.859375 18.84375 -3.859375 C 21.894531 -3.859375 24.226562 -4.738281 25.84375 -6.5 C 27.457031 -8.257812 28.265625 -10.945312 28.265625 -14.5625 L 28.265625 -33.3125 L 32.890625 -33.3125 L 32.890625 -14.375 C 32.890625 -9.582031 31.648438 -5.925781 29.171875 -3.40625 C 26.703125 -0.882812 23.242188 0.375 18.796875 0.375 Z M 18.796875 0.375 "/></g></g></g><g fill="#ffffff" fill-opacity="1"><g transform="translate(974.850607, 278.319684)"><g><path d="M 5 -33.3125 L 19.03125 -33.3125 C 22.5625 -33.3125 25.6875 -32.613281 28.40625 -31.21875 C 31.132812 -29.820312 33.253906 -27.863281 34.765625 -25.34375 C 36.273438 -22.820312 37.03125 -19.925781 37.03125 -16.65625 C 37.03125 -13.382812 36.273438 -10.488281 34.765625 -7.96875 C 33.253906 -5.445312 31.132812 -3.488281 28.40625 -2.09375 C 25.6875 -0.695312 22.5625 0 19.03125 0 L 5 0 Z M 18.75 -4.140625 C 21.445312 -4.140625 23.816406 -4.660156 25.859375 -5.703125 C 27.910156 -6.753906 29.488281 -8.222656 30.59375 -10.109375 C 31.707031 -12.003906 32.265625 -14.1875 32.265625 -16.65625 C 32.265625 -19.132812 31.707031 -21.316406 30.59375 -23.203125 C 29.488281 -25.085938 27.910156 -26.550781 25.859375 -27.59375 C 23.816406 -28.644531 21.445312 -29.171875 18.75 -29.171875 L 9.75 -29.171875 L 9.75 -4.140625 Z M 18.75 -4.140625 "/></g></g></g></svg>