<svg xmlns="http://www.w3.org/2000/svg" xmlns:xlink="http://www.w3.org/1999/xlink" width="500" zoomAndPan="magnify" viewBox="0 0 375 374.999991" height="500" preserveAspectRatio="xMidYMid meet" version="1.0"><defs><g/><clipPath id="1252ecead5"><path d="M 45.46875 64.109375 L 329.71875 64.109375 L 329.71875 310.859375 L 45.46875 310.859375 Z M 45.46875 64.109375 " clip-rule="nonzero"/></clipPath></defs><rect x="-37.5" width="450" fill="#ffffff" y="-37.499999" height="449.999989" fill-opacity="1"/><rect x="-37.5" width="450" fill="#000000" y="-37.499999" height="449.999989" fill-opacity="1"/><g clip-path="url(#1252ecead5)"><path fill="#ffffff" d="M 175.867188 172.664062 L 67.289062 281.242188 L 45.582031 259.539062 L 132.441406 172.664062 L 45.582031 85.804688 L 67.289062 64.109375 Z M 175.867188 280.160156 L 329.417969 280.160156 L 329.417969 310.859375 L 175.867188 310.859375 Z M 175.867188 280.160156 " fill-opacity="1" fill-rule="nonzero"/></g><g fill="#000000" fill-opacity="1"><g transform="translate(0.0000045, 373.655643)"><g><path d="M 2.71875 -1.9375 L 2.65625 -1.9375 C 2.625 -2.007812 2.582031 -2.078125 2.53125 -2.140625 C 2.488281 -2.210938 2.441406 -2.273438 2.390625 -2.328125 C 2.273438 -2.453125 2.132812 -2.546875 1.96875 -2.609375 C 1.8125 -2.679688 1.644531 -2.71875 1.46875 -2.71875 C 1.289062 -2.71875 1.117188 -2.679688 0.953125 -2.609375 C 0.796875 -2.546875 0.660156 -2.453125 0.546875 -2.328125 C 0.429688 -2.203125 0.335938 -2.054688 0.265625 -1.890625 C 0.203125 -1.734375 0.171875 -1.566406 0.171875 -1.390625 C 0.171875 -1.203125 0.203125 -1.03125 0.265625 -0.875 C 0.335938 -0.71875 0.429688 -0.578125 0.546875 -0.453125 C 0.660156 -0.328125 0.796875 -0.226562 0.953125 -0.15625 C 1.117188 -0.09375 1.289062 -0.0625 1.46875 -0.0625 C 1.644531 -0.0625 1.8125 -0.09375 1.96875 -0.15625 C 2.132812 -0.226562 2.273438 -0.328125 2.390625 -0.453125 C 2.441406 -0.503906 2.488281 -0.5625 2.53125 -0.625 C 2.582031 -0.695312 2.625 -0.769531 2.65625 -0.84375 L 2.71875 -0.84375 C 2.65625 -0.675781 2.5625 -0.53125 2.4375 -0.40625 C 2.3125 -0.28125 2.164062 -0.179688 2 -0.109375 C 1.832031 -0.0351562 1.65625 0 1.46875 0 C 1.28125 0 1.101562 -0.0351562 0.9375 -0.109375 C 0.769531 -0.179688 0.625 -0.28125 0.5 -0.40625 C 0.382812 -0.53125 0.289062 -0.675781 0.21875 -0.84375 C 0.144531 -1.007812 0.109375 -1.191406 0.109375 -1.390625 C 0.109375 -1.578125 0.144531 -1.753906 0.21875 -1.921875 C 0.289062 -2.097656 0.382812 -2.25 0.5 -2.375 C 0.625 -2.5 0.769531 -2.597656 0.9375 -2.671875 C 1.101562 -2.742188 1.28125 -2.78125 1.46875 -2.78125 C 1.65625 -2.78125 1.832031 -2.742188 2 -2.671875 C 2.164062 -2.597656 2.3125 -2.5 2.4375 -2.375 C 2.5625 -2.238281 2.65625 -2.09375 2.71875 -1.9375 Z M 2.71875 -1.9375 "/></g></g></g><g fill="#000000" fill-opacity="1"><g transform="translate(2.828036, 373.655643)"><g><path d="M 2.890625 -1.390625 C 2.890625 -1.578125 2.851562 -1.753906 2.78125 -1.921875 C 2.71875 -2.085938 2.625 -2.234375 2.5 -2.359375 C 2.375 -2.484375 2.226562 -2.582031 2.0625 -2.65625 C 1.90625 -2.726562 1.726562 -2.765625 1.53125 -2.765625 C 1.351562 -2.765625 1.179688 -2.726562 1.015625 -2.65625 C 0.847656 -2.582031 0.703125 -2.484375 0.578125 -2.359375 C 0.453125 -2.234375 0.351562 -2.085938 0.28125 -1.921875 C 0.207031 -1.753906 0.171875 -1.578125 0.171875 -1.390625 C 0.171875 -1.203125 0.207031 -1.023438 0.28125 -0.859375 C 0.351562 -0.703125 0.453125 -0.5625 0.578125 -0.4375 C 0.703125 -0.3125 0.847656 -0.210938 1.015625 -0.140625 C 1.179688 -0.0664062 1.351562 -0.03125 1.53125 -0.03125 C 1.726562 -0.03125 1.90625 -0.0664062 2.0625 -0.140625 C 2.226562 -0.210938 2.375 -0.3125 2.5 -0.4375 C 2.625 -0.5625 2.71875 -0.703125 2.78125 -0.859375 C 2.851562 -1.023438 2.890625 -1.203125 2.890625 -1.390625 Z M 0.109375 -1.390625 C 0.109375 -1.585938 0.144531 -1.773438 0.21875 -1.953125 C 0.300781 -2.128906 0.40625 -2.28125 0.53125 -2.40625 C 0.65625 -2.539062 0.804688 -2.644531 0.984375 -2.71875 C 1.160156 -2.789062 1.34375 -2.828125 1.53125 -2.828125 C 1.726562 -2.828125 1.910156 -2.789062 2.078125 -2.71875 C 2.253906 -2.644531 2.410156 -2.539062 2.546875 -2.40625 C 2.671875 -2.28125 2.769531 -2.128906 2.84375 -1.953125 C 2.925781 -1.773438 2.96875 -1.585938 2.96875 -1.390625 C 2.96875 -1.191406 2.925781 -1.003906 2.84375 -0.828125 C 2.769531 -0.660156 2.671875 -0.507812 2.546875 -0.375 C 2.410156 -0.25 2.253906 -0.144531 2.078125 -0.0625 C 1.910156 0.0078125 1.726562 0.046875 1.53125 0.046875 C 1.34375 0.046875 1.160156 0.0078125 0.984375 -0.0625 C 0.804688 -0.144531 0.65625 -0.25 0.53125 -0.375 C 0.40625 -0.507812 0.300781 -0.660156 0.21875 -0.828125 C 0.144531 -1.003906 0.109375 -1.191406 0.109375 -1.390625 Z M 0.109375 -1.390625 "/></g></g></g><g fill="#000000" fill-opacity="1"><g transform="translate(5.895058, 373.655643)"><g><path d="M 0.25 -0.0625 L 1.125 -0.0625 C 1.34375 -0.0625 1.53125 -0.0976562 1.6875 -0.171875 C 1.851562 -0.242188 1.988281 -0.34375 2.09375 -0.46875 C 2.207031 -0.601562 2.289062 -0.75 2.34375 -0.90625 C 2.40625 -1.0625 2.4375 -1.222656 2.4375 -1.390625 C 2.4375 -1.554688 2.40625 -1.71875 2.34375 -1.875 C 2.289062 -2.039062 2.207031 -2.1875 2.09375 -2.3125 C 1.988281 -2.4375 1.851562 -2.535156 1.6875 -2.609375 C 1.53125 -2.679688 1.34375 -2.71875 1.125 -2.71875 L 0.25 -2.71875 C 0.25 -2.289062 0.25 -1.847656 0.25 -1.390625 C 0.25 -0.929688 0.25 -0.488281 0.25 -0.0625 Z M 0.1875 -2.78125 L 1.125 -2.78125 C 1.351562 -2.78125 1.550781 -2.738281 1.71875 -2.65625 C 1.894531 -2.582031 2.039062 -2.476562 2.15625 -2.34375 C 2.269531 -2.21875 2.351562 -2.070312 2.40625 -1.90625 C 2.46875 -1.738281 2.5 -1.566406 2.5 -1.390625 C 2.5 -1.210938 2.46875 -1.039062 2.40625 -0.875 C 2.351562 -0.71875 2.269531 -0.570312 2.15625 -0.4375 C 2.039062 -0.300781 1.894531 -0.191406 1.71875 -0.109375 C 1.550781 -0.0351562 1.351562 0 1.125 0 L 0.1875 0 C 0.1875 -0.46875 0.1875 -0.929688 0.1875 -1.390625 C 0.1875 -1.859375 0.1875 -2.320312 0.1875 -2.78125 Z M 0.1875 -2.78125 "/></g></g></g><g fill="#000000" fill-opacity="1"><g transform="translate(8.488085, 373.655643)"><g><path d="M 0.25 -1.359375 L 0.25 -0.0625 L 1.734375 -0.0625 L 1.734375 0 L 0.1875 0 L 0.1875 -2.78125 L 1.71875 -2.78125 L 1.71875 -2.71875 L 0.25 -2.71875 L 0.25 -1.421875 L 1.6875 -1.421875 L 1.6875 -1.359375 Z M 0.25 -1.359375 "/></g></g></g></svg>