<svg xmlns="http://www.w3.org/2000/svg" xmlns:xlink="http://www.w3.org/1999/xlink" width="2160" zoomAndPan="magnify" viewBox="0 0 1620 809.999993" height="1080" preserveAspectRatio="xMidYMid meet" version="1.0"><defs><g/><clipPath id="2e202a5064"><path d="M 0.679688 1 L 5 1 L 5 5 L 0.679688 5 Z M 0.679688 1 " clip-rule="nonzero"/></clipPath><clipPath id="93b56e115c"><rect x="0" width="15" y="0" height="6"/></clipPath><clipPath id="c70aa203a5"><path d="M 242.183594 327.496094 L 420.683594 327.496094 L 420.683594 482.746094 L 242.183594 482.746094 Z M 242.183594 327.496094 " clip-rule="nonzero"/></clipPath><clipPath id="6b21be6cba"><rect x="0" width="940" y="0" height="160"/></clipPath></defs><g transform="matrix(1, 0, 0, 1, 787, 638)"><g clip-path="url(#93b56e115c)"><g clip-path="url(#2e202a5064)"><g fill="#000000" fill-opacity="1"><g transform="translate(0.845319, 4.492758)"><g><path d="M 3.34375 -2.375 L 3.25 -2.375 C 3.21875 -2.46875 3.171875 -2.550781 3.109375 -2.625 C 3.054688 -2.707031 3 -2.785156 2.9375 -2.859375 C 2.789062 -3.003906 2.617188 -3.117188 2.421875 -3.203125 C 2.234375 -3.285156 2.023438 -3.328125 1.796875 -3.328125 C 1.585938 -3.328125 1.382812 -3.285156 1.1875 -3.203125 C 0.988281 -3.117188 0.816406 -3.003906 0.671875 -2.859375 C 0.523438 -2.703125 0.410156 -2.523438 0.328125 -2.328125 C 0.242188 -2.140625 0.203125 -1.929688 0.203125 -1.703125 C 0.203125 -1.484375 0.242188 -1.273438 0.328125 -1.078125 C 0.410156 -0.878906 0.523438 -0.707031 0.671875 -0.5625 C 0.816406 -0.40625 0.988281 -0.285156 1.1875 -0.203125 C 1.382812 -0.117188 1.585938 -0.078125 1.796875 -0.078125 C 2.023438 -0.078125 2.234375 -0.117188 2.421875 -0.203125 C 2.617188 -0.285156 2.789062 -0.40625 2.9375 -0.5625 C 3 -0.625 3.054688 -0.691406 3.109375 -0.765625 C 3.171875 -0.847656 3.21875 -0.9375 3.25 -1.03125 L 3.34375 -1.03125 C 3.257812 -0.832031 3.140625 -0.65625 2.984375 -0.5 C 2.835938 -0.34375 2.660156 -0.21875 2.453125 -0.125 C 2.253906 -0.0390625 2.035156 0 1.796875 0 C 1.566406 0 1.347656 -0.0390625 1.140625 -0.125 C 0.941406 -0.21875 0.769531 -0.34375 0.625 -0.5 C 0.46875 -0.65625 0.34375 -0.832031 0.25 -1.03125 C 0.164062 -1.238281 0.125 -1.460938 0.125 -1.703125 C 0.125 -1.941406 0.164062 -2.164062 0.25 -2.375 C 0.34375 -2.582031 0.46875 -2.757812 0.625 -2.90625 C 0.769531 -3.0625 0.941406 -3.179688 1.140625 -3.265625 C 1.347656 -3.359375 1.566406 -3.40625 1.796875 -3.40625 C 2.035156 -3.40625 2.253906 -3.359375 2.453125 -3.265625 C 2.660156 -3.179688 2.835938 -3.0625 2.984375 -2.90625 C 3.140625 -2.75 3.257812 -2.570312 3.34375 -2.375 Z M 3.34375 -2.375 "/></g></g></g></g><g fill="#000000" fill-opacity="1"><g transform="translate(4.317182, 4.492758)"><g><path d="M 3.5625 -1.71875 C 3.5625 -1.945312 3.515625 -2.160156 3.421875 -2.359375 C 3.335938 -2.566406 3.222656 -2.742188 3.078125 -2.890625 C 2.921875 -3.046875 2.738281 -3.164062 2.53125 -3.25 C 2.332031 -3.34375 2.117188 -3.390625 1.890625 -3.390625 C 1.660156 -3.390625 1.441406 -3.34375 1.234375 -3.25 C 1.035156 -3.164062 0.859375 -3.046875 0.703125 -2.890625 C 0.554688 -2.742188 0.4375 -2.566406 0.34375 -2.359375 C 0.257812 -2.160156 0.21875 -1.945312 0.21875 -1.71875 C 0.21875 -1.476562 0.257812 -1.257812 0.34375 -1.0625 C 0.4375 -0.863281 0.554688 -0.6875 0.703125 -0.53125 C 0.859375 -0.375 1.035156 -0.25 1.234375 -0.15625 C 1.441406 -0.0703125 1.660156 -0.03125 1.890625 -0.03125 C 2.117188 -0.03125 2.332031 -0.0703125 2.53125 -0.15625 C 2.738281 -0.25 2.921875 -0.375 3.078125 -0.53125 C 3.222656 -0.6875 3.335938 -0.863281 3.421875 -1.0625 C 3.515625 -1.257812 3.5625 -1.476562 3.5625 -1.71875 Z M 0.140625 -1.71875 C 0.140625 -1.957031 0.1875 -2.179688 0.28125 -2.390625 C 0.375 -2.609375 0.5 -2.796875 0.65625 -2.953125 C 0.8125 -3.117188 0.992188 -3.242188 1.203125 -3.328125 C 1.421875 -3.421875 1.648438 -3.46875 1.890625 -3.46875 C 2.128906 -3.46875 2.351562 -3.421875 2.5625 -3.328125 C 2.78125 -3.242188 2.96875 -3.117188 3.125 -2.953125 C 3.28125 -2.796875 3.40625 -2.609375 3.5 -2.390625 C 3.59375 -2.179688 3.640625 -1.957031 3.640625 -1.71875 C 3.640625 -1.46875 3.59375 -1.234375 3.5 -1.015625 C 3.40625 -0.804688 3.28125 -0.625 3.125 -0.46875 C 2.96875 -0.3125 2.78125 -0.1875 2.5625 -0.09375 C 2.351562 0 2.128906 0.046875 1.890625 0.046875 C 1.648438 0.046875 1.421875 0 1.203125 -0.09375 C 0.992188 -0.1875 0.8125 -0.3125 0.65625 -0.46875 C 0.5 -0.625 0.375 -0.804688 0.28125 -1.015625 C 0.1875 -1.234375 0.140625 -1.46875 0.140625 -1.71875 Z M 0.140625 -1.71875 "/></g></g></g><g fill="#000000" fill-opacity="1"><g transform="translate(8.082441, 4.492758)"><g><path d="M 0.296875 -0.078125 L 1.375 -0.078125 C 1.644531 -0.078125 1.878906 -0.117188 2.078125 -0.203125 C 2.285156 -0.296875 2.453125 -0.421875 2.578125 -0.578125 C 2.710938 -0.734375 2.8125 -0.910156 2.875 -1.109375 C 2.945312 -1.304688 2.984375 -1.503906 2.984375 -1.703125 C 2.984375 -1.910156 2.945312 -2.113281 2.875 -2.3125 C 2.8125 -2.507812 2.710938 -2.6875 2.578125 -2.84375 C 2.453125 -3 2.285156 -3.117188 2.078125 -3.203125 C 1.878906 -3.296875 1.644531 -3.34375 1.375 -3.34375 L 0.296875 -3.34375 C 0.296875 -2.8125 0.296875 -2.265625 0.296875 -1.703125 C 0.296875 -1.148438 0.296875 -0.609375 0.296875 -0.078125 Z M 0.21875 -3.421875 L 1.375 -3.421875 C 1.65625 -3.421875 1.898438 -3.367188 2.109375 -3.265625 C 2.328125 -3.171875 2.503906 -3.039062 2.640625 -2.875 C 2.773438 -2.71875 2.878906 -2.535156 2.953125 -2.328125 C 3.023438 -2.128906 3.0625 -1.921875 3.0625 -1.703125 C 3.0625 -1.492188 3.023438 -1.285156 2.953125 -1.078125 C 2.878906 -0.878906 2.773438 -0.695312 2.640625 -0.53125 C 2.503906 -0.363281 2.328125 -0.234375 2.109375 -0.140625 C 1.898438 -0.046875 1.65625 0 1.375 0 L 0.21875 0 C 0.21875 -0.570312 0.21875 -1.140625 0.21875 -1.703125 C 0.21875 -2.273438 0.21875 -2.847656 0.21875 -3.421875 Z M 0.21875 -3.421875 "/></g></g></g><g fill="#000000" fill-opacity="1"><g transform="translate(11.265796, 4.492758)"><g><path d="M 0.3125 -1.671875 L 0.3125 -0.078125 L 2.125 -0.078125 L 2.125 0 L 0.234375 0 L 0.234375 -3.421875 L 2.125 -3.421875 L 2.125 -3.34375 L 0.3125 -3.34375 L 0.3125 -1.75 L 2.078125 -1.75 L 2.078125 -1.671875 Z M 0.3125 -1.671875 "/></g></g></g></g></g><g clip-path="url(#c70aa203a5)"><path fill="#ffffff" d="M 324.085938 395.679688 L 255.886719 463.882812 L 242.253906 450.246094 L 296.8125 395.679688 L 242.253906 341.121094 L 255.886719 327.496094 Z M 324.085938 463.199219 L 420.539062 463.199219 L 420.539062 482.484375 L 324.085938 482.484375 Z M 324.085938 463.199219 " fill-opacity="1" fill-rule="nonzero"/></g><g transform="matrix(1, 0, 0, 1, 439, 325)"><g clip-path="url(#6b21be6cba)"><g fill="#ffffff" fill-opacity="1"><g transform="translate(1.191538, 125.847126)"><g><path d="M 54.125 0.78125 C 45.144531 0.78125 37.050781 -1.203125 29.84375 -5.171875 C 22.632812 -9.148438 16.976562 -14.65625 12.875 -21.6875 C 8.78125 -28.726562 6.734375 -36.609375 6.734375 -45.328125 C 6.734375 -54.046875 8.78125 -61.921875 12.875 -68.953125 C 16.976562 -75.992188 22.65625 -81.5 29.90625 -85.46875 C 37.164062 -89.4375 45.285156 -91.421875 54.265625 -91.421875 C 60.992188 -91.421875 67.207031 -90.296875 72.90625 -88.046875 C 78.601562 -85.804688 83.4375 -82.53125 87.40625 -78.21875 L 81.328125 -72.125 C 74.242188 -79.289062 65.304688 -82.875 54.515625 -82.875 C 47.347656 -82.875 40.828125 -81.234375 34.953125 -77.953125 C 29.085938 -74.671875 24.492188 -70.179688 21.171875 -64.484375 C 17.847656 -58.785156 16.1875 -52.398438 16.1875 -45.328125 C 16.1875 -38.242188 17.847656 -31.851562 21.171875 -26.15625 C 24.492188 -20.457031 29.085938 -15.96875 34.953125 -12.6875 C 40.828125 -9.40625 47.347656 -7.765625 54.515625 -7.765625 C 65.398438 -7.765625 74.335938 -11.390625 81.328125 -18.640625 L 87.40625 -12.5625 C 83.4375 -8.25 78.582031 -4.945312 72.84375 -2.65625 C 67.101562 -0.363281 60.863281 0.78125 54.125 0.78125 Z M 54.125 0.78125 "/></g></g></g><g fill="#ffffff" fill-opacity="1"><g transform="translate(91.314345, 125.847126)"><g><path d="M 40.65625 0.640625 C 34.101562 0.640625 28.191406 -0.84375 22.921875 -3.8125 C 17.648438 -6.789062 13.503906 -10.914062 10.484375 -16.1875 C 7.460938 -21.457031 5.953125 -27.414062 5.953125 -34.0625 C 5.953125 -40.707031 7.460938 -46.660156 10.484375 -51.921875 C 13.503906 -57.191406 17.648438 -61.296875 22.921875 -64.234375 C 28.191406 -67.171875 34.101562 -68.640625 40.65625 -68.640625 C 47.21875 -68.640625 53.128906 -67.171875 58.390625 -64.234375 C 63.660156 -61.296875 67.785156 -57.191406 70.765625 -51.921875 C 73.742188 -46.660156 75.234375 -40.707031 75.234375 -34.0625 C 75.234375 -27.414062 73.742188 -21.457031 70.765625 -16.1875 C 67.785156 -10.914062 63.660156 -6.789062 58.390625 -3.8125 C 53.128906 -0.84375 47.21875 0.640625 40.65625 0.640625 Z M 40.65625 -7.515625 C 45.5 -7.515625 49.835938 -8.613281 53.671875 -10.8125 C 57.515625 -13.007812 60.515625 -16.132812 62.671875 -20.1875 C 64.835938 -24.25 65.921875 -28.875 65.921875 -34.0625 C 65.921875 -39.238281 64.835938 -43.851562 62.671875 -47.90625 C 60.515625 -51.96875 57.515625 -55.097656 53.671875 -57.296875 C 49.835938 -59.503906 45.5 -60.609375 40.65625 -60.609375 C 35.820312 -60.609375 31.484375 -59.503906 27.640625 -57.296875 C 23.804688 -55.097656 20.785156 -51.96875 18.578125 -47.90625 C 16.378906 -43.851562 15.28125 -39.238281 15.28125 -34.0625 C 15.28125 -28.875 16.378906 -24.25 18.578125 -20.1875 C 20.785156 -16.132812 23.804688 -13.007812 27.640625 -10.8125 C 31.484375 -8.613281 35.820312 -7.515625 40.65625 -7.515625 Z M 40.65625 -7.515625 "/></g></g></g><g fill="#ffffff" fill-opacity="1"><g transform="translate(172.502742, 125.847126)"><g><path d="M 74.984375 -96.09375 L 74.984375 0 L 66.171875 0 L 66.171875 -13.46875 C 63.410156 -8.894531 59.765625 -5.398438 55.234375 -2.984375 C 50.703125 -0.566406 45.585938 0.640625 39.890625 0.640625 C 33.492188 0.640625 27.707031 -0.820312 22.53125 -3.75 C 17.351562 -6.6875 13.296875 -10.785156 10.359375 -16.046875 C 7.421875 -21.316406 5.953125 -27.320312 5.953125 -34.0625 C 5.953125 -40.789062 7.421875 -46.785156 10.359375 -52.046875 C 13.296875 -57.316406 17.351562 -61.398438 22.53125 -64.296875 C 27.707031 -67.191406 33.492188 -68.640625 39.890625 -68.640625 C 45.410156 -68.640625 50.394531 -67.492188 54.84375 -65.203125 C 59.289062 -62.910156 62.9375 -59.566406 65.78125 -55.171875 L 65.78125 -96.09375 Z M 40.65625 -7.515625 C 45.40625 -7.515625 49.703125 -8.613281 53.546875 -10.8125 C 57.390625 -13.007812 60.410156 -16.132812 62.609375 -20.1875 C 64.816406 -24.25 65.921875 -28.875 65.921875 -34.0625 C 65.921875 -39.238281 64.816406 -43.851562 62.609375 -47.90625 C 60.410156 -51.96875 57.390625 -55.097656 53.546875 -57.296875 C 49.703125 -59.503906 45.40625 -60.609375 40.65625 -60.609375 C 35.820312 -60.609375 31.484375 -59.503906 27.640625 -57.296875 C 23.804688 -55.097656 20.785156 -51.96875 18.578125 -47.90625 C 16.378906 -43.851562 15.28125 -39.238281 15.28125 -34.0625 C 15.28125 -28.875 16.378906 -24.25 18.578125 -20.1875 C 20.785156 -16.132812 23.804688 -13.007812 27.640625 -10.8125 C 31.484375 -8.613281 35.820312 -7.515625 40.65625 -7.515625 Z M 40.65625 -7.515625 "/></g></g></g><g fill="#ffffff" fill-opacity="1"><g transform="translate(260.29498, 125.847126)"><g><path d="M 72.125 -31.203125 L 15.15625 -31.203125 C 15.664062 -24.128906 18.378906 -18.410156 23.296875 -14.046875 C 28.222656 -9.691406 34.441406 -7.515625 41.953125 -7.515625 C 46.179688 -7.515625 50.066406 -8.269531 53.609375 -9.78125 C 57.148438 -11.289062 60.21875 -13.515625 62.8125 -16.453125 L 67.984375 -10.484375 C 64.960938 -6.859375 61.1875 -4.097656 56.65625 -2.203125 C 52.125 -0.304688 47.140625 0.640625 41.703125 0.640625 C 34.703125 0.640625 28.503906 -0.84375 23.109375 -3.8125 C 17.710938 -6.789062 13.503906 -10.914062 10.484375 -16.1875 C 7.460938 -21.457031 5.953125 -27.414062 5.953125 -34.0625 C 5.953125 -40.707031 7.398438 -46.660156 10.296875 -51.921875 C 13.191406 -57.191406 17.160156 -61.296875 22.203125 -64.234375 C 27.253906 -67.171875 32.929688 -68.640625 39.234375 -68.640625 C 45.535156 -68.640625 51.191406 -67.171875 56.203125 -64.234375 C 61.210938 -61.296875 65.140625 -57.210938 67.984375 -51.984375 C 70.835938 -46.765625 72.265625 -40.789062 72.265625 -34.0625 Z M 39.234375 -60.734375 C 32.671875 -60.734375 27.164062 -58.640625 22.71875 -54.453125 C 18.28125 -50.265625 15.757812 -44.804688 15.15625 -38.078125 L 63.453125 -38.078125 C 62.847656 -44.804688 60.320312 -50.265625 55.875 -54.453125 C 51.425781 -58.640625 45.878906 -60.734375 39.234375 -60.734375 Z M 39.234375 -60.734375 "/></g></g></g><g fill="#ffffff" fill-opacity="1"><g transform="translate(338.505169, 125.847126)"><g/></g></g><g fill="#ffffff" fill-opacity="1"><g transform="translate(372.430802, 125.847126)"><g><path d="M 32.375 -82.359375 L 0.515625 -82.359375 L 0.515625 -90.65625 L 73.8125 -90.65625 L 73.8125 -82.359375 L 41.953125 -82.359375 L 41.953125 0 L 32.375 0 Z M 32.375 -82.359375 "/></g></g></g><g fill="#ffffff" fill-opacity="1"><g transform="translate(439.634124, 125.847126)"><g><path d="M 40.65625 0.640625 C 34.101562 0.640625 28.191406 -0.84375 22.921875 -3.8125 C 17.648438 -6.789062 13.503906 -10.914062 10.484375 -16.1875 C 7.460938 -21.457031 5.953125 -27.414062 5.953125 -34.0625 C 5.953125 -40.707031 7.460938 -46.660156 10.484375 -51.921875 C 13.503906 -57.191406 17.648438 -61.296875 22.921875 -64.234375 C 28.191406 -67.171875 34.101562 -68.640625 40.65625 -68.640625 C 47.21875 -68.640625 53.128906 -67.171875 58.390625 -64.234375 C 63.660156 -61.296875 67.785156 -57.191406 70.765625 -51.921875 C 73.742188 -46.660156 75.234375 -40.707031 75.234375 -34.0625 C 75.234375 -27.414062 73.742188 -21.457031 70.765625 -16.1875 C 67.785156 -10.914062 63.660156 -6.789062 58.390625 -3.8125 C 53.128906 -0.84375 47.21875 0.640625 40.65625 0.640625 Z M 40.65625 -7.515625 C 45.5 -7.515625 49.835938 -8.613281 53.671875 -10.8125 C 57.515625 -13.007812 60.515625 -16.132812 62.671875 -20.1875 C 64.835938 -24.25 65.921875 -28.875 65.921875 -34.0625 C 65.921875 -39.238281 64.835938 -43.851562 62.671875 -47.90625 C 60.515625 -51.96875 57.515625 -55.097656 53.671875 -57.296875 C 49.835938 -59.503906 45.5 -60.609375 40.65625 -60.609375 C 35.820312 -60.609375 31.484375 -59.503906 27.640625 -57.296875 C 23.804688 -55.097656 20.785156 -51.96875 18.578125 -47.90625 C 16.378906 -43.851562 15.28125 -39.238281 15.28125 -34.0625 C 15.28125 -28.875 16.378906 -24.25 18.578125 -20.1875 C 20.785156 -16.132812 23.804688 -13.007812 27.640625 -10.8125 C 31.484375 -8.613281 35.820312 -7.515625 40.65625 -7.515625 Z M 40.65625 -7.515625 "/></g></g></g><g fill="#ffffff" fill-opacity="1"><g transform="translate(520.822522, 125.847126)"><g/></g></g><g fill="#ffffff" fill-opacity="1"><g transform="translate(554.748128, 125.847126)"><g><path d="M 54.125 0.78125 C 45.144531 0.78125 37.050781 -1.203125 29.84375 -5.171875 C 22.632812 -9.148438 16.976562 -14.65625 12.875 -21.6875 C 8.78125 -28.726562 6.734375 -36.609375 6.734375 -45.328125 C 6.734375 -54.046875 8.78125 -61.921875 12.875 -68.953125 C 16.976562 -75.992188 22.65625 -81.5 29.90625 -85.46875 C 37.164062 -89.4375 45.285156 -91.421875 54.265625 -91.421875 C 60.992188 -91.421875 67.207031 -90.296875 72.90625 -88.046875 C 78.601562 -85.804688 83.4375 -82.53125 87.40625 -78.21875 L 81.328125 -72.125 C 74.242188 -79.289062 65.304688 -82.875 54.515625 -82.875 C 47.347656 -82.875 40.828125 -81.234375 34.953125 -77.953125 C 29.085938 -74.671875 24.492188 -70.179688 21.171875 -64.484375 C 17.847656 -58.785156 16.1875 -52.398438 16.1875 -45.328125 C 16.1875 -38.242188 17.847656 -31.851562 21.171875 -26.15625 C 24.492188 -20.457031 29.085938 -15.96875 34.953125 -12.6875 C 40.828125 -9.40625 47.347656 -7.765625 54.515625 -7.765625 C 65.398438 -7.765625 74.335938 -11.390625 81.328125 -18.640625 L 87.40625 -12.5625 C 83.4375 -8.25 78.582031 -4.945312 72.84375 -2.65625 C 67.101562 -0.363281 60.863281 0.78125 54.125 0.78125 Z M 54.125 0.78125 "/></g></g></g><g fill="#ffffff" fill-opacity="1"><g transform="translate(647.849357, 125.847126)"><g><path d="M 12.828125 -96.09375 L 22.015625 -96.09375 L 22.015625 0 L 12.828125 0 Z M 12.828125 -96.09375 "/></g></g></g><g fill="#ffffff" fill-opacity="1"><g transform="translate(682.681356, 125.847126)"><g><path d="M 40.65625 0.640625 C 34.101562 0.640625 28.191406 -0.84375 22.921875 -3.8125 C 17.648438 -6.789062 13.503906 -10.914062 10.484375 -16.1875 C 7.460938 -21.457031 5.953125 -27.414062 5.953125 -34.0625 C 5.953125 -40.707031 7.460938 -46.660156 10.484375 -51.921875 C 13.503906 -57.191406 17.648438 -61.296875 22.921875 -64.234375 C 28.191406 -67.171875 34.101562 -68.640625 40.65625 -68.640625 C 47.21875 -68.640625 53.128906 -67.171875 58.390625 -64.234375 C 63.660156 -61.296875 67.785156 -57.191406 70.765625 -51.921875 C 73.742188 -46.660156 75.234375 -40.707031 75.234375 -34.0625 C 75.234375 -27.414062 73.742188 -21.457031 70.765625 -16.1875 C 67.785156 -10.914062 63.660156 -6.789062 58.390625 -3.8125 C 53.128906 -0.84375 47.21875 0.640625 40.65625 0.640625 Z M 40.65625 -7.515625 C 45.5 -7.515625 49.835938 -8.613281 53.671875 -10.8125 C 57.515625 -13.007812 60.515625 -16.132812 62.671875 -20.1875 C 64.835938 -24.25 65.921875 -28.875 65.921875 -34.0625 C 65.921875 -39.238281 64.835938 -43.851562 62.671875 -47.90625 C 60.515625 -51.96875 57.515625 -55.097656 53.671875 -57.296875 C 49.835938 -59.503906 45.5 -60.609375 40.65625 -60.609375 C 35.820312 -60.609375 31.484375 -59.503906 27.640625 -57.296875 C 23.804688 -55.097656 20.785156 -51.96875 18.578125 -47.90625 C 16.378906 -43.851562 15.28125 -39.238281 15.28125 -34.0625 C 15.28125 -28.875 16.378906 -24.25 18.578125 -20.1875 C 20.785156 -16.132812 23.804688 -13.007812 27.640625 -10.8125 C 31.484375 -8.613281 35.820312 -7.515625 40.65625 -7.515625 Z M 40.65625 -7.515625 "/></g></g></g><g fill="#ffffff" fill-opacity="1"><g transform="translate(763.869753, 125.847126)"><g><path d="M 74.203125 -68.109375 L 74.203125 0 L 65.390625 0 L 65.390625 -12.4375 C 62.972656 -8.289062 59.648438 -5.070312 55.421875 -2.78125 C 51.191406 -0.5 46.359375 0.640625 40.921875 0.640625 C 32.023438 0.640625 25.007812 -1.835938 19.875 -6.796875 C 14.738281 -11.765625 12.171875 -19.039062 12.171875 -28.625 L 12.171875 -68.109375 L 21.375 -68.109375 L 21.375 -29.53125 C 21.375 -22.363281 23.140625 -16.921875 26.671875 -13.203125 C 30.210938 -9.492188 35.265625 -7.640625 41.828125 -7.640625 C 48.992188 -7.640625 54.648438 -9.816406 58.796875 -14.171875 C 62.941406 -18.535156 65.015625 -24.601562 65.015625 -32.375 L 65.015625 -68.109375 Z M 74.203125 -68.109375 "/></g></g></g><g fill="#ffffff" fill-opacity="1"><g transform="translate(851.014617, 125.847126)"><g><path d="M 74.984375 -96.09375 L 74.984375 0 L 66.171875 0 L 66.171875 -13.46875 C 63.410156 -8.894531 59.765625 -5.398438 55.234375 -2.984375 C 50.703125 -0.566406 45.585938 0.640625 39.890625 0.640625 C 33.492188 0.640625 27.707031 -0.820312 22.53125 -3.75 C 17.351562 -6.6875 13.296875 -10.785156 10.359375 -16.046875 C 7.421875 -21.316406 5.953125 -27.320312 5.953125 -34.0625 C 5.953125 -40.789062 7.421875 -46.785156 10.359375 -52.046875 C 13.296875 -57.316406 17.351562 -61.398438 22.53125 -64.296875 C 27.707031 -67.191406 33.492188 -68.640625 39.890625 -68.640625 C 45.410156 -68.640625 50.394531 -67.492188 54.84375 -65.203125 C 59.289062 -62.910156 62.9375 -59.566406 65.78125 -55.171875 L 65.78125 -96.09375 Z M 40.65625 -7.515625 C 45.40625 -7.515625 49.703125 -8.613281 53.546875 -10.8125 C 57.390625 -13.007812 60.410156 -16.132812 62.609375 -20.1875 C 64.816406 -24.25 65.921875 -28.875 65.921875 -34.0625 C 65.921875 -39.238281 64.816406 -43.851562 62.609375 -47.90625 C 60.410156 -51.96875 57.390625 -55.097656 53.546875 -57.296875 C 49.703125 -59.503906 45.40625 -60.609375 40.65625 -60.609375 C 35.820312 -60.609375 31.484375 -59.503906 27.640625 -57.296875 C 23.804688 -55.097656 20.785156 -51.96875 18.578125 -47.90625 C 16.378906 -43.851562 15.28125 -39.238281 15.28125 -34.0625 C 15.28125 -28.875 16.378906 -24.25 18.578125 -20.1875 C 20.785156 -16.132812 23.804688 -13.007812 27.640625 -10.8125 C 31.484375 -8.613281 35.820312 -7.515625 40.65625 -7.515625 Z M 40.65625 -7.515625 "/></g></g></g></g></g></svg>