<svg xmlns="http://www.w3.org/2000/svg" xmlns:xlink="http://www.w3.org/1999/xlink" width="1920" zoomAndPan="magnify" viewBox="0 0 1440 809.999993" height="1080" preserveAspectRatio="xMidYMid meet" version="1.2"><defs><clipPath id="5c711fa375"><path d="M 354.355469 165.957031 L 697.855469 165.957031 L 697.855469 464.457031 L 354.355469 464.457031 Z M 354.355469 165.957031 "/></clipPath></defs><g id="a32bc74c9b"><rect x="0" width="1440" y="0" height="809.999993" style="fill:#ffffff;fill-opacity:1;stroke:none;"/><rect x="0" width="1440" y="0" height="809.999993" style="fill:#000000;fill-opacity:1;stroke:none;"/><g clip-rule="nonzero" clip-path="url(#5c711fa375)"><path style=" stroke:none;fill-rule:nonzero;fill:#ffffff;fill-opacity:1;" d="M 512.035156 297.222656 L 380.746094 428.511719 L 354.496094 402.265625 L 459.527344 297.222656 L 354.496094 192.191406 L 380.746094 165.957031 Z M 512.035156 427.203125 L 697.707031 427.203125 L 697.707031 464.324219 L 512.035156 464.324219 Z M 512.035156 427.203125 "/></g><g style="fill:#000000;fill-opacity:1;"><g transform="translate(697.845331, 642.492694)"><path style="stroke:none" d="M 3.34375 -2.375 L 3.25 -2.375 C 3.21875 -2.46875 3.171875 -2.550781 3.109375 -2.625 C 3.054688 -2.707031 3 -2.785156 2.9375 -2.859375 C 2.789062 -3.003906 2.617188 -3.117188 2.421875 -3.203125 C 2.234375 -3.285156 2.023438 -3.328125 1.796875 -3.328125 C 1.585938 -3.328125 1.382812 -3.285156 1.1875 -3.203125 C 0.988281 -3.117188 0.816406 -3.003906 0.671875 -2.859375 C 0.523438 -2.703125 0.410156 -2.523438 0.328125 -2.328125 C 0.242188 -2.140625 0.203125 -1.929688 0.203125 -1.703125 C 0.203125 -1.484375 0.242188 -1.273438 0.328125 -1.078125 C 0.410156 -0.878906 0.523438 -0.707031 0.671875 -0.5625 C 0.816406 -0.40625 0.988281 -0.285156 1.1875 -0.203125 C 1.382812 -0.117188 1.585938 -0.078125 1.796875 -0.078125 C 2.023438 -0.078125 2.234375 -0.117188 2.421875 -0.203125 C 2.617188 -0.285156 2.789062 -0.40625 2.9375 -0.5625 C 3 -0.625 3.054688 -0.691406 3.109375 -0.765625 C 3.171875 -0.847656 3.21875 -0.9375 3.25 -1.03125 L 3.34375 -1.03125 C 3.257812 -0.832031 3.140625 -0.65625 2.984375 -0.5 C 2.835938 -0.34375 2.660156 -0.21875 2.453125 -0.125 C 2.253906 -0.0390625 2.035156 0 1.796875 0 C 1.566406 0 1.347656 -0.0390625 1.140625 -0.125 C 0.941406 -0.21875 0.769531 -0.34375 0.625 -0.5 C 0.46875 -0.65625 0.34375 -0.832031 0.25 -1.03125 C 0.164062 -1.238281 0.125 -1.460938 0.125 -1.703125 C 0.125 -1.941406 0.164062 -2.164062 0.25 -2.375 C 0.34375 -2.582031 0.46875 -2.757812 0.625 -2.90625 C 0.769531 -3.0625 0.941406 -3.179688 1.140625 -3.265625 C 1.347656 -3.359375 1.566406 -3.40625 1.796875 -3.40625 C 2.035156 -3.40625 2.253906 -3.359375 2.453125 -3.265625 C 2.660156 -3.179688 2.835938 -3.0625 2.984375 -2.90625 C 3.140625 -2.75 3.257812 -2.570312 3.34375 -2.375 Z M 3.34375 -2.375 "/></g></g><g style="fill:#000000;fill-opacity:1;"><g transform="translate(701.317194, 642.492694)"><path style="stroke:none" d="M 3.5625 -1.71875 C 3.5625 -1.945312 3.515625 -2.160156 3.421875 -2.359375 C 3.335938 -2.566406 3.222656 -2.742188 3.078125 -2.890625 C 2.921875 -3.046875 2.738281 -3.164062 2.53125 -3.25 C 2.332031 -3.34375 2.117188 -3.390625 1.890625 -3.390625 C 1.660156 -3.390625 1.441406 -3.34375 1.234375 -3.25 C 1.035156 -3.164062 0.859375 -3.046875 0.703125 -2.890625 C 0.554688 -2.742188 0.4375 -2.566406 0.34375 -2.359375 C 0.257812 -2.160156 0.21875 -1.945312 0.21875 -1.71875 C 0.21875 -1.476562 0.257812 -1.257812 0.34375 -1.0625 C 0.4375 -0.863281 0.554688 -0.6875 0.703125 -0.53125 C 0.859375 -0.375 1.035156 -0.25 1.234375 -0.15625 C 1.441406 -0.0703125 1.660156 -0.03125 1.890625 -0.03125 C 2.117188 -0.03125 2.332031 -0.0703125 2.53125 -0.15625 C 2.738281 -0.25 2.921875 -0.375 3.078125 -0.53125 C 3.222656 -0.6875 3.335938 -0.863281 3.421875 -1.0625 C 3.515625 -1.257812 3.5625 -1.476562 3.5625 -1.71875 Z M 0.140625 -1.71875 C 0.140625 -1.957031 0.1875 -2.179688 0.28125 -2.390625 C 0.375 -2.609375 0.5 -2.796875 0.65625 -2.953125 C 0.8125 -3.117188 0.992188 -3.242188 1.203125 -3.328125 C 1.421875 -3.421875 1.648438 -3.46875 1.890625 -3.46875 C 2.128906 -3.46875 2.351562 -3.421875 2.5625 -3.328125 C 2.78125 -3.242188 2.96875 -3.117188 3.125 -2.953125 C 3.28125 -2.796875 3.40625 -2.609375 3.5 -2.390625 C 3.59375 -2.179688 3.640625 -1.957031 3.640625 -1.71875 C 3.640625 -1.46875 3.59375 -1.234375 3.5 -1.015625 C 3.40625 -0.804688 3.28125 -0.625 3.125 -0.46875 C 2.96875 -0.3125 2.78125 -0.1875 2.5625 -0.09375 C 2.351562 0 2.128906 0.046875 1.890625 0.046875 C 1.648438 0.046875 1.421875 0 1.203125 -0.09375 C 0.992188 -0.1875 0.8125 -0.3125 0.65625 -0.46875 C 0.5 -0.625 0.375 -0.804688 0.28125 -1.015625 C 0.1875 -1.234375 0.140625 -1.46875 0.140625 -1.71875 Z M 0.140625 -1.71875 "/></g></g><g style="fill:#000000;fill-opacity:1;"><g transform="translate(705.082453, 642.492694)"><path style="stroke:none" d="M 0.296875 -0.078125 L 1.375 -0.078125 C 1.644531 -0.078125 1.878906 -0.117188 2.078125 -0.203125 C 2.285156 -0.296875 2.453125 -0.421875 2.578125 -0.578125 C 2.710938 -0.734375 2.8125 -0.910156 2.875 -1.109375 C 2.945312 -1.304688 2.984375 -1.503906 2.984375 -1.703125 C 2.984375 -1.910156 2.945312 -2.113281 2.875 -2.3125 C 2.8125 -2.507812 2.710938 -2.6875 2.578125 -2.84375 C 2.453125 -3 2.285156 -3.117188 2.078125 -3.203125 C 1.878906 -3.296875 1.644531 -3.34375 1.375 -3.34375 L 0.296875 -3.34375 C 0.296875 -2.8125 0.296875 -2.265625 0.296875 -1.703125 C 0.296875 -1.148438 0.296875 -0.609375 0.296875 -0.078125 Z M 0.21875 -3.421875 L 1.375 -3.421875 C 1.65625 -3.421875 1.898438 -3.367188 2.109375 -3.265625 C 2.328125 -3.171875 2.503906 -3.039062 2.640625 -2.875 C 2.773438 -2.71875 2.878906 -2.535156 2.953125 -2.328125 C 3.023438 -2.128906 3.0625 -1.921875 3.0625 -1.703125 C 3.0625 -1.492188 3.023438 -1.285156 2.953125 -1.078125 C 2.878906 -0.878906 2.773438 -0.695312 2.640625 -0.53125 C 2.503906 -0.363281 2.328125 -0.234375 2.109375 -0.140625 C 1.898438 -0.046875 1.65625 0 1.375 0 L 0.21875 0 C 0.21875 -0.570312 0.21875 -1.140625 0.21875 -1.703125 C 0.21875 -2.273438 0.21875 -2.847656 0.21875 -3.421875 Z M 0.21875 -3.421875 "/></g></g><g style="fill:#000000;fill-opacity:1;"><g transform="translate(708.265808, 642.492694)"><path style="stroke:none" d="M 0.3125 -1.671875 L 0.3125 -0.078125 L 2.125 -0.078125 L 2.125 0 L 0.234375 0 L 0.234375 -3.421875 L 2.125 -3.421875 L 2.125 -3.34375 L 0.3125 -3.34375 L 0.3125 -1.75 L 2.078125 -1.75 L 2.078125 -1.671875 Z M 0.3125 -1.671875 "/></g></g><g style="fill:#ffffff;fill-opacity:1;"><g transform="translate(354.439442, 587.431622)"><path style="stroke:none" d="M 42.21875 0.609375 C 35.207031 0.609375 28.890625 -0.9375 23.265625 -4.03125 C 17.648438 -7.132812 13.242188 -11.425781 10.046875 -16.90625 C 6.847656 -22.394531 5.25 -28.539062 5.25 -35.34375 C 5.25 -42.144531 6.847656 -48.285156 10.046875 -53.765625 C 13.242188 -59.253906 17.671875 -63.546875 23.328125 -66.640625 C 28.984375 -69.742188 35.3125 -71.296875 42.3125 -71.296875 C 47.5625 -71.296875 52.40625 -70.421875 56.84375 -68.671875 C 61.289062 -66.921875 65.066406 -64.363281 68.171875 -61 L 63.421875 -56.25 C 57.898438 -61.832031 50.929688 -64.625 42.515625 -64.625 C 36.921875 -64.625 31.835938 -63.34375 27.265625 -60.78125 C 22.691406 -58.226562 19.109375 -54.726562 16.515625 -50.28125 C 13.921875 -45.84375 12.625 -40.863281 12.625 -35.34375 C 12.625 -29.820312 13.921875 -24.835938 16.515625 -20.390625 C 19.109375 -15.953125 22.691406 -12.453125 27.265625 -9.890625 C 31.835938 -7.335938 36.921875 -6.0625 42.515625 -6.0625 C 50.992188 -6.0625 57.960938 -8.890625 63.421875 -14.546875 L 68.171875 -9.796875 C 65.066406 -6.429688 61.273438 -3.851562 56.796875 -2.0625 C 52.328125 -0.28125 47.46875 0.609375 42.21875 0.609375 Z M 42.21875 0.609375 "/></g></g><g style="fill:#ffffff;fill-opacity:1;"><g transform="translate(424.721715, 587.431622)"><path style="stroke:none" d="M 31.703125 0.5 C 26.585938 0.5 21.976562 -0.660156 17.875 -2.984375 C 13.769531 -5.304688 10.535156 -8.519531 8.171875 -12.625 C 5.816406 -16.726562 4.640625 -21.375 4.640625 -26.5625 C 4.640625 -31.738281 5.816406 -36.378906 8.171875 -40.484375 C 10.535156 -44.597656 13.769531 -47.796875 17.875 -50.078125 C 21.976562 -52.367188 26.585938 -53.515625 31.703125 -53.515625 C 36.828125 -53.515625 41.441406 -52.367188 45.546875 -50.078125 C 49.648438 -47.796875 52.863281 -44.597656 55.1875 -40.484375 C 57.507812 -36.378906 58.671875 -31.738281 58.671875 -26.5625 C 58.671875 -21.375 57.507812 -16.726562 55.1875 -12.625 C 52.863281 -8.519531 49.648438 -5.304688 45.546875 -2.984375 C 41.441406 -0.660156 36.828125 0.5 31.703125 0.5 Z M 31.703125 -5.859375 C 35.472656 -5.859375 38.859375 -6.710938 41.859375 -8.421875 C 44.859375 -10.140625 47.195312 -12.582031 48.875 -15.75 C 50.5625 -18.914062 51.40625 -22.519531 51.40625 -26.5625 C 51.40625 -30.601562 50.5625 -34.203125 48.875 -37.359375 C 47.195312 -40.523438 44.859375 -42.96875 41.859375 -44.6875 C 38.859375 -46.40625 35.472656 -47.265625 31.703125 -47.265625 C 27.929688 -47.265625 24.546875 -46.40625 21.546875 -44.6875 C 18.554688 -42.96875 16.203125 -40.523438 14.484375 -37.359375 C 12.773438 -34.203125 11.921875 -30.601562 11.921875 -26.5625 C 11.921875 -22.519531 12.773438 -18.914062 14.484375 -15.75 C 16.203125 -12.582031 18.554688 -10.140625 21.546875 -8.421875 C 24.546875 -6.710938 27.929688 -5.859375 31.703125 -5.859375 Z M 31.703125 -5.859375 "/></g></g><g style="fill:#ffffff;fill-opacity:1;"><g transform="translate(488.036493, 587.431622)"><path style="stroke:none" d="M 58.46875 -74.9375 L 58.46875 0 L 51.609375 0 L 51.609375 -10.5 C 49.453125 -6.9375 46.601562 -4.210938 43.0625 -2.328125 C 39.53125 -0.441406 35.546875 0.5 31.109375 0.5 C 26.117188 0.5 21.601562 -0.640625 17.5625 -2.921875 C 13.53125 -5.210938 10.367188 -8.410156 8.078125 -12.515625 C 5.785156 -16.628906 4.640625 -21.3125 4.640625 -26.5625 C 4.640625 -31.8125 5.785156 -36.488281 8.078125 -40.59375 C 10.367188 -44.695312 13.53125 -47.875 17.5625 -50.125 C 21.601562 -52.382812 26.117188 -53.515625 31.109375 -53.515625 C 35.410156 -53.515625 39.296875 -52.625 42.765625 -50.84375 C 46.234375 -49.0625 49.078125 -46.453125 51.296875 -43.015625 L 51.296875 -74.9375 Z M 31.703125 -5.859375 C 35.410156 -5.859375 38.757812 -6.710938 41.75 -8.421875 C 44.75 -10.140625 47.109375 -12.582031 48.828125 -15.75 C 50.546875 -18.914062 51.40625 -22.519531 51.40625 -26.5625 C 51.40625 -30.601562 50.546875 -34.203125 48.828125 -37.359375 C 47.109375 -40.523438 44.75 -42.96875 41.75 -44.6875 C 38.757812 -46.40625 35.410156 -47.265625 31.703125 -47.265625 C 27.929688 -47.265625 24.546875 -46.40625 21.546875 -44.6875 C 18.554688 -42.96875 16.203125 -40.523438 14.484375 -37.359375 C 12.773438 -34.203125 11.921875 -30.601562 11.921875 -26.5625 C 11.921875 -22.519531 12.773438 -18.914062 14.484375 -15.75 C 16.203125 -12.582031 18.554688 -10.140625 21.546875 -8.421875 C 24.546875 -6.710938 27.929688 -5.859375 31.703125 -5.859375 Z M 31.703125 -5.859375 "/></g></g><g style="fill:#ffffff;fill-opacity:1;"><g transform="translate(556.501283, 587.431622)"><path style="stroke:none" d="M 56.25 -24.34375 L 11.8125 -24.34375 C 12.21875 -18.820312 14.335938 -14.359375 18.171875 -10.953125 C 22.015625 -7.554688 26.863281 -5.859375 32.71875 -5.859375 C 36.019531 -5.859375 39.050781 -6.445312 41.8125 -7.625 C 44.570312 -8.800781 46.960938 -10.535156 48.984375 -12.828125 L 53.015625 -8.1875 C 50.660156 -5.351562 47.710938 -3.195312 44.171875 -1.71875 C 40.640625 -0.238281 36.753906 0.5 32.515625 0.5 C 27.066406 0.5 22.238281 -0.660156 18.03125 -2.984375 C 13.820312 -5.304688 10.535156 -8.519531 8.171875 -12.625 C 5.816406 -16.726562 4.640625 -21.375 4.640625 -26.5625 C 4.640625 -31.738281 5.765625 -36.378906 8.015625 -40.484375 C 10.273438 -44.597656 13.375 -47.796875 17.3125 -50.078125 C 21.25 -52.367188 25.675781 -53.515625 30.59375 -53.515625 C 35.507812 -53.515625 39.921875 -52.367188 43.828125 -50.078125 C 47.734375 -47.796875 50.796875 -44.617188 53.015625 -40.546875 C 55.234375 -36.472656 56.34375 -31.8125 56.34375 -26.5625 Z M 30.59375 -47.359375 C 25.476562 -47.359375 21.1875 -45.722656 17.71875 -42.453125 C 14.25 -39.191406 12.28125 -34.9375 11.8125 -29.6875 L 49.484375 -29.6875 C 49.015625 -34.9375 47.046875 -39.191406 43.578125 -42.453125 C 40.109375 -45.722656 35.78125 -47.359375 30.59375 -47.359375 Z M 30.59375 -47.359375 "/></g></g><g style="fill:#ffffff;fill-opacity:1;"><g transform="translate(617.493506, 587.431622)"><path style="stroke:none" d=""/></g></g><g style="fill:#ffffff;fill-opacity:1;"><g transform="translate(643.950414, 587.431622)"><path style="stroke:none" d="M 25.25 -64.21875 L 0.40625 -64.21875 L 0.40625 -70.6875 L 57.5625 -70.6875 L 57.5625 -64.21875 L 32.71875 -64.21875 L 32.71875 0 L 25.25 0 Z M 25.25 -64.21875 "/></g></g><g style="fill:#ffffff;fill-opacity:1;"><g transform="translate(696.358905, 587.431622)"><path style="stroke:none" d="M 31.703125 0.5 C 26.585938 0.5 21.976562 -0.660156 17.875 -2.984375 C 13.769531 -5.304688 10.535156 -8.519531 8.171875 -12.625 C 5.816406 -16.726562 4.640625 -21.375 4.640625 -26.5625 C 4.640625 -31.738281 5.816406 -36.378906 8.171875 -40.484375 C 10.535156 -44.597656 13.769531 -47.796875 17.875 -50.078125 C 21.976562 -52.367188 26.585938 -53.515625 31.703125 -53.515625 C 36.828125 -53.515625 41.441406 -52.367188 45.546875 -50.078125 C 49.648438 -47.796875 52.863281 -44.597656 55.1875 -40.484375 C 57.507812 -36.378906 58.671875 -31.738281 58.671875 -26.5625 C 58.671875 -21.375 57.507812 -16.726562 55.1875 -12.625 C 52.863281 -8.519531 49.648438 -5.304688 45.546875 -2.984375 C 41.441406 -0.660156 36.828125 0.5 31.703125 0.5 Z M 31.703125 -5.859375 C 35.472656 -5.859375 38.859375 -6.710938 41.859375 -8.421875 C 44.859375 -10.140625 47.195312 -12.582031 48.875 -15.75 C 50.5625 -18.914062 51.40625 -22.519531 51.40625 -26.5625 C 51.40625 -30.601562 50.5625 -34.203125 48.875 -37.359375 C 47.195312 -40.523438 44.859375 -42.96875 41.859375 -44.6875 C 38.859375 -46.40625 35.472656 -47.265625 31.703125 -47.265625 C 27.929688 -47.265625 24.546875 -46.40625 21.546875 -44.6875 C 18.554688 -42.96875 16.203125 -40.523438 14.484375 -37.359375 C 12.773438 -34.203125 11.921875 -30.601562 11.921875 -26.5625 C 11.921875 -22.519531 12.773438 -18.914062 14.484375 -15.75 C 16.203125 -12.582031 18.554688 -10.140625 21.546875 -8.421875 C 24.546875 -6.710938 27.929688 -5.859375 31.703125 -5.859375 Z M 31.703125 -5.859375 "/></g></g><g style="fill:#ffffff;fill-opacity:1;"><g transform="translate(759.673706, 587.431622)"><path style="stroke:none" d=""/></g></g><g style="fill:#ffffff;fill-opacity:1;"><g transform="translate(786.130614, 587.431622)"><path style="stroke:none" d="M 42.21875 0.609375 C 35.207031 0.609375 28.890625 -0.9375 23.265625 -4.03125 C 17.648438 -7.132812 13.242188 -11.425781 10.046875 -16.90625 C 6.847656 -22.394531 5.25 -28.539062 5.25 -35.34375 C 5.25 -42.144531 6.847656 -48.285156 10.046875 -53.765625 C 13.242188 -59.253906 17.671875 -63.546875 23.328125 -66.640625 C 28.984375 -69.742188 35.3125 -71.296875 42.3125 -71.296875 C 47.5625 -71.296875 52.40625 -70.421875 56.84375 -68.671875 C 61.289062 -66.921875 65.066406 -64.363281 68.171875 -61 L 63.421875 -56.25 C 57.898438 -61.832031 50.929688 -64.625 42.515625 -64.625 C 36.921875 -64.625 31.835938 -63.34375 27.265625 -60.78125 C 22.691406 -58.226562 19.109375 -54.726562 16.515625 -50.28125 C 13.921875 -45.84375 12.625 -40.863281 12.625 -35.34375 C 12.625 -29.820312 13.921875 -24.835938 16.515625 -20.390625 C 19.109375 -15.953125 22.691406 -12.453125 27.265625 -9.890625 C 31.835938 -7.335938 36.921875 -6.0625 42.515625 -6.0625 C 50.992188 -6.0625 57.960938 -8.890625 63.421875 -14.546875 L 68.171875 -9.796875 C 65.066406 -6.429688 61.273438 -3.851562 56.796875 -2.0625 C 52.328125 -0.28125 47.46875 0.609375 42.21875 0.609375 Z M 42.21875 0.609375 "/></g></g><g style="fill:#ffffff;fill-opacity:1;"><g transform="translate(858.735591, 587.431622)"><path style="stroke:none" d="M 10 -74.9375 L 17.171875 -74.9375 L 17.171875 0 L 10 0 Z M 10 -74.9375 "/></g></g><g style="fill:#ffffff;fill-opacity:1;"><g transform="translate(885.899332, 587.431622)"><path style="stroke:none" d="M 31.703125 0.5 C 26.585938 0.5 21.976562 -0.660156 17.875 -2.984375 C 13.769531 -5.304688 10.535156 -8.519531 8.171875 -12.625 C 5.816406 -16.726562 4.640625 -21.375 4.640625 -26.5625 C 4.640625 -31.738281 5.816406 -36.378906 8.171875 -40.484375 C 10.535156 -44.597656 13.769531 -47.796875 17.875 -50.078125 C 21.976562 -52.367188 26.585938 -53.515625 31.703125 -53.515625 C 36.828125 -53.515625 41.441406 -52.367188 45.546875 -50.078125 C 49.648438 -47.796875 52.863281 -44.597656 55.1875 -40.484375 C 57.507812 -36.378906 58.671875 -31.738281 58.671875 -26.5625 C 58.671875 -21.375 57.507812 -16.726562 55.1875 -12.625 C 52.863281 -8.519531 49.648438 -5.304688 45.546875 -2.984375 C 41.441406 -0.660156 36.828125 0.5 31.703125 0.5 Z M 31.703125 -5.859375 C 35.472656 -5.859375 38.859375 -6.710938 41.859375 -8.421875 C 44.859375 -10.140625 47.195312 -12.582031 48.875 -15.75 C 50.5625 -18.914062 51.40625 -22.519531 51.40625 -26.5625 C 51.40625 -30.601562 50.5625 -34.203125 48.875 -37.359375 C 47.195312 -40.523438 44.859375 -42.96875 41.859375 -44.6875 C 38.859375 -46.40625 35.472656 -47.265625 31.703125 -47.265625 C 27.929688 -47.265625 24.546875 -46.40625 21.546875 -44.6875 C 18.554688 -42.96875 16.203125 -40.523438 14.484375 -37.359375 C 12.773438 -34.203125 11.921875 -30.601562 11.921875 -26.5625 C 11.921875 -22.519531 12.773438 -18.914062 14.484375 -15.75 C 16.203125 -12.582031 18.554688 -10.140625 21.546875 -8.421875 C 24.546875 -6.710938 27.929688 -5.859375 31.703125 -5.859375 Z M 31.703125 -5.859375 "/></g></g><g style="fill:#ffffff;fill-opacity:1;"><g transform="translate(949.214133, 587.431622)"><path style="stroke:none" d="M 57.859375 -53.125 L 57.859375 0 L 51 0 L 51 -9.6875 C 49.113281 -6.457031 46.519531 -3.953125 43.21875 -2.171875 C 39.914062 -0.390625 36.144531 0.5 31.90625 0.5 C 24.976562 0.5 19.507812 -1.429688 15.5 -5.296875 C 11.5 -9.171875 9.5 -14.84375 9.5 -22.3125 L 9.5 -53.125 L 16.65625 -53.125 L 16.65625 -23.03125 C 16.65625 -17.4375 18.035156 -13.191406 20.796875 -10.296875 C 23.554688 -7.398438 27.5 -5.953125 32.625 -5.953125 C 38.207031 -5.953125 42.613281 -7.648438 45.84375 -11.046875 C 49.070312 -14.453125 50.6875 -19.1875 50.6875 -25.25 L 50.6875 -53.125 Z M 57.859375 -53.125 "/></g></g><g style="fill:#ffffff;fill-opacity:1;"><g transform="translate(1017.173999, 587.431622)"><path style="stroke:none" d="M 58.46875 -74.9375 L 58.46875 0 L 51.609375 0 L 51.609375 -10.5 C 49.453125 -6.9375 46.601562 -4.210938 43.0625 -2.328125 C 39.53125 -0.441406 35.546875 0.5 31.109375 0.5 C 26.117188 0.5 21.601562 -0.640625 17.5625 -2.921875 C 13.53125 -5.210938 10.367188 -8.410156 8.078125 -12.515625 C 5.785156 -16.628906 4.640625 -21.3125 4.640625 -26.5625 C 4.640625 -31.8125 5.785156 -36.488281 8.078125 -40.59375 C 10.367188 -44.695312 13.53125 -47.875 17.5625 -50.125 C 21.601562 -52.382812 26.117188 -53.515625 31.109375 -53.515625 C 35.410156 -53.515625 39.296875 -52.625 42.765625 -50.84375 C 46.234375 -49.0625 49.078125 -46.453125 51.296875 -43.015625 L 51.296875 -74.9375 Z M 31.703125 -5.859375 C 35.410156 -5.859375 38.757812 -6.710938 41.75 -8.421875 C 44.75 -10.140625 47.109375 -12.582031 48.828125 -15.75 C 50.546875 -18.914062 51.40625 -22.519531 51.40625 -26.5625 C 51.40625 -30.601562 50.546875 -34.203125 48.828125 -37.359375 C 47.109375 -40.523438 44.75 -42.96875 41.75 -44.6875 C 38.757812 -46.40625 35.410156 -47.265625 31.703125 -47.265625 C 27.929688 -47.265625 24.546875 -46.40625 21.546875 -44.6875 C 18.554688 -42.96875 16.203125 -40.523438 14.484375 -37.359375 C 12.773438 -34.203125 11.921875 -30.601562 11.921875 -26.5625 C 11.921875 -22.519531 12.773438 -18.914062 14.484375 -15.75 C 16.203125 -12.582031 18.554688 -10.140625 21.546875 -8.421875 C 24.546875 -6.710938 27.929688 -5.859375 31.703125 -5.859375 Z M 31.703125 -5.859375 "/></g></g></g></svg>